<svg id="レイヤー_1" data-name="レイヤー 1" xmlns="http://www.w3.org/2000/svg" viewBox="0 0 369.9 142.3"><defs><style>.cls-1{isolation:isolate;font-size:111px;font-family:Krungthep;}.cls-2{fill:#e85077;}</style></defs><text class="cls-1" transform="translate(0 97.1)">Pietra</text><rect x="24.4" y="34.3" width="1.1" height="7" transform="translate(-13.1 62.3) rotate(-89.3)"/><rect x="41.4" y="37.2" width="10" height="1"/><rect x="34.4" y="49.2" width="4" height="3"/><path class="cls-2" d="M36.4,51.8l.7-.4L40.8,38H31.2l4.5,13.3Zm4-14.5L36,31.9l-4.4,5.4ZM22,38,34.4,50.2,30.3,38ZM38.4,50.4,51,38H41.7ZM27.7,31.8,22,37.3h8Zm23.2,5.5L45,31.6l-3,5.7ZM35.4,31.2h-7l2.3,5.7Zm8.8,0H36.6l4.6,5.7Z" transform="translate(0 0)"/><rect x="20.5" y="29.1" width="6.4" height="29.7" transform="translate(-24.2 29.6) rotate(-45)"/><rect x="32.2" y="43" width="29.7" height="6.72" transform="translate(-19 46.9) rotate(-45)"/><rect x="21.2" y="22.2" width="29.7" height="9"/><rect x="17.5" y="32.1" width="12.7" height="3" transform="translate(-16.8 26.7) rotate(-45)"/><rect x="46.3" y="26.3" width="3" height="12.66" transform="translate(-9.1 43.3) rotate(-45)"/><polygon points="102.1 23.9 92.4 29.4 82.7 23.8 82.8 12.6 92.5 7 102.2 12.7 102.1 23.9"/></svg>